<?xml version="1.0" ?><svg height="512" id="svg4156" version="1.1" width="512" xmlns="http://www.w3.org/2000/svg" xmlns:cc="http://creativecommons.org/ns#" xmlns:dc="http://purl.org/dc/elements/1.1/" xmlns:rdf="http://www.w3.org/1999/02/22-rdf-syntax-ns#" xmlns:svg="http://www.w3.org/2000/svg"><defs id="defs4158"/><g id="layer1" transform="translate(0,448)"><g id="g2985" transform="matrix(0.95998409,0,0,0.95998409,10.244073,-7.6830566)"><g id="g3766" transform="translate(6.0019691,-349.94102)"><path d="M 9.8503937,41.811025 C -1.0275591,52.263781 -1.7716535,59.102364 2.2322835,73.24016 c 8.4685035,29.69291 30.7559055,39.29528 66.7204725,33.66142 36.000004,-5.63386 57.295274,5.06693 77.421264,15.30708 91.24015,46.73623 178.6181,97.72442 253.98425,156.43702 12.50787,9.81496 18.21259,28.38189 32.42126,35.2559 9.03543,4.3937 21.68504,0.7441 31.5,-5.13779 17.00787,-10.20473 12.9685,-31.85433 28.09842,-47.23229 21.40158,-21.7559 -6.55512,-43.54724 -30.89764,-39.68504 -29.79921,4.74803 -58.3937,-5.56299 -83.90551,-19.06299 C 307.52362,165.68504 239.20866,125.46851 171.56693,84.259845 145.16929,68.208663 122.91732,45.283466 105.98031,17.539371 96.271653,1.5944882 61.15748,-12.259843 53.326771,17.64567 42.625984,58.464569 23.811024,28.346458 9.8503937,41.811025 z" id="path3768" style="fill:#37484a;fill-opacity:1;fill-rule:nonzero;stroke:none"/><path d="M 425.12598,0.03543307 C 412.97244,0.2480315 399.47244,8.5748034 394.01575,17.539371 c -16.97244,27.779528 -39.18898,50.669292 -65.58662,66.720474 -21.47244,13.110237 -43.05118,26.078745 -64.70078,38.870075 14.06692,8.11418 28.16929,16.12205 42.27165,24.09449 15.73228,-8.4685 31.6063,-16.83071 47.62205,-25.01575 20.12598,-10.24015 41.42126,-20.94094 77.42126,-15.30708 35.96456,5.63386 58.25196,-3.96851 66.72047,-33.66142 4.00393,-14.137796 3.25984,-20.976379 -7.61811,-31.429135 C 476.18504,28.346458 457.37008,58.464569 446.66929,17.64567 443.23228,4.5708663 434.58661,-0.17716536 425.12598,0.03543307 z M 193.99606,163.55906 c -23.66929,13.35827 -47.51575,26.4685 -71.53937,39.22441 -25.547242,13.5 -54.14173,23.81102 -83.940942,19.06299 -24.34252,-3.8622 -52.299213,17.92914 -30.8976378,39.72048 15.1299208,15.37795 11.0905508,36.99212 28.0984248,47.19685 9.814961,5.88189 22.464567,9.53149 31.5,5.17323 14.244095,-6.90945 19.948819,-25.47638 32.456693,-35.29134 42.129922,-32.84646 88.015752,-63.24804 136.275592,-91.87796 -5.10236,-2.90551 -10.16929,-5.81102 -15.27166,-8.6811 -8.96456,-4.67717 -17.82283,-9.60236 -26.6811,-14.52756 z" id="path3770" style="fill:#37484a;fill-opacity:1;fill-rule:nonzero;stroke:none"/></g></g></g></svg>