<?xml version="1.0" ?><!DOCTYPE svg  PUBLIC '-//W3C//DTD SVG 1.1//EN'  'http://www.w3.org/Graphics/SVG/1.1/DTD/svg11.dtd'><svg enable-background="new 0 0 64 64" height="64px" id="Layer_1" version="1.1" viewBox="0 0 64 64" width="64px" xml:space="preserve" xmlns="http://www.w3.org/2000/svg" xmlns:xlink="http://www.w3.org/1999/xlink"><path d="M32,7.964c-10.954,0-19.834,8.88-19.834,19.834c0,4.317,1.383,8.309,3.725,11.565v4.974c0,2.209,1.42,4,3.171,4h3.171v5.253  l-0.011,0.003c0,1.349,1.094,2.443,2.443,2.443s2.443-1.094,2.443-2.443c0,1.349,1.094,2.443,2.443,2.443s2.443-1.094,2.443-2.443  c0,1.349,1.094,2.443,2.443,2.443c1.349,0,2.443-1.094,2.443-2.443c0,1.349,1.094,2.443,2.443,2.443s2.443-1.094,2.443-2.443h0.002  v-5.256c0,0,1.51,0,3.373,0s3.373-1.791,3.373-4v-5.551c2.098-3.146,3.322-6.924,3.322-10.988C51.834,16.844,42.954,7.964,32,7.964z   M24.692,41.116c-2.474,0-4.48-2.006-4.48-4.48s2.006-4.48,4.48-4.48s4.48,2.006,4.48,4.48S27.166,41.116,24.692,41.116z   M35.291,46.074h-6.096c-0.882,0-1.103-0.52-0.492-1.156l2.408-2.506c0.611-0.636,1.613-0.638,2.227-0.005l2.441,2.517  C36.392,45.556,36.173,46.074,35.291,46.074z M39.308,41.116c-2.474,0-4.48-2.006-4.48-4.48s2.006-4.48,4.48-4.48  s4.48,2.006,4.48,4.48S41.783,41.116,39.308,41.116z"/></svg>