<?xml version="1.0" ?><svg enable-background="new 0 0 32 32" version="1.1" viewBox="0 0 32 32" xml:space="preserve" xmlns="http://www.w3.org/2000/svg" xmlns:xlink="http://www.w3.org/1999/xlink"><g id="OC"><g><g><polygon fill="#FC6F58" points="0.5,9.94 6.818,16 0.5,22.06    "/></g><path d="M1,11.112L6.095,16L1,20.888V11.112 M0,8.767v14.465L7.54,16L0,8.767L0,8.767z"/></g><g><g><polygon fill="#FC6F58" points="25.182,16 31.5,9.94 31.5,22.06    "/></g><path d="M31,11.112v9.776L25.905,16L31,11.112 M32,8.767L24.46,16L32,23.233V8.767L32,8.767z"/></g><g><g><polygon fill="#FC6F58" points="9.94,0.5 22.06,0.5 16,6.817    "/></g><path d="M20.888,1L16,6.095L11.112,1H20.888 M23.233,0H8.767L16,7.54L23.233,0L23.233,0z"/></g><g><g><polygon fill="#FC6F58" points="9.94,31.5 16,25.183 22.06,31.5    "/></g><path d="M16,25.905L20.888,31h-9.776L16,25.905 M16,24.46L8.767,32h14.465L16,24.46L16,24.46z"/></g><g><line fill="#4ACEB5" x1="4.417" x2="27.583" y1="27.583" y2="4.417"/><rect height="1" transform="matrix(0.7071 -0.7071 0.7071 0.7071 -6.6274 16.0001)" width="32.763" x="-0.381" y="15.5"/></g><g><line fill="#4ACEB5" x1="4.417" x2="27.583" y1="4.417" y2="27.583"/><rect height="32.763" transform="matrix(0.7071 -0.7071 0.7071 0.7071 -6.6274 16.0001)" width="1" x="15.5" y="-0.382"/></g></g></svg>